<svg width="40" height="40" viewBox="0 0 40 40" fill="none" xmlns="http://www.w3.org/2000/svg">
<g clip-path="url(#clip0_499_1121)">
<path d="M30.033 12.0944C31.382 12.0944 32.4756 11.0008 32.4756 9.65174C32.4756 8.30271 31.382 7.20911 30.033 7.20911C28.6839 7.20911 27.5903 8.30271 27.5903 9.65174C27.5903 11.0008 28.6839 12.0944 30.033 12.0944Z" fill="#4BBEDB"/>
<path d="M19.6449 29.8694C25.0402 29.8694 29.4129 25.4968 29.4129 20.1015C29.4129 14.7061 25.0402 10.3335 19.6449 10.3335C14.2496 10.3335 9.87695 14.7061 9.87695 20.1015C9.87695 25.4968 14.2496 29.8694 19.6449 29.8694ZM19.6449 13.7501C23.1512 13.7552 25.9911 16.5951 25.9937 20.0989C25.9937 23.6052 23.1512 26.4477 19.6449 26.4477C16.1386 26.4477 13.2961 23.6052 13.2961 20.0989C13.2961 16.5926 16.1386 13.7501 19.6449 13.7501Z" fill="#4BBEDB"/>
<path d="M9.87684 39.6374H29.4153C34.8106 39.6374 39.1833 35.2647 39.1833 29.8694V10.3309C39.1833 4.93563 34.8106 0.562988 29.4153 0.562988H9.87684C4.48153 0.562988 0.108887 4.93563 0.108887 10.3309V29.8694C0.108887 35.2647 4.48153 39.6374 9.87684 39.6374ZM3.52806 10.3309C3.53318 6.82463 6.37309 3.98472 9.87684 3.98216H29.4153C32.9216 3.98728 35.7615 6.82719 35.7641 10.3309V29.8694C35.759 33.3757 32.9191 36.2156 29.4153 36.2182H9.87684C6.37053 36.2131 3.53062 33.3732 3.52806 29.8694V10.3309Z" fill="#4BBEDB"/>
</g>
<defs>
<clipPath id="clip0_499_1121">
<rect width="39.0744" height="39.0744" fill="white" transform="translate(0.108887 0.562988)"/>
</clipPath>
</defs>
</svg>
