<svg width="40" height="40" viewBox="0 0 40 40" fill="none" xmlns="http://www.w3.org/2000/svg">
<g clip-path="url(#clip0_499_1125)">
<path d="M8.88338 13.4059H0.522949V39.6373H8.88338V13.4059Z" fill="#4BBEDB"/>
<path d="M28.0649 12.7535C25.7506 13.1753 23.3996 14.2243 21.5324 17.087V13.4059H13.7344V39.6374H21.9289V25.065C21.9176 23.808 22.3198 22.5819 23.0734 21.578C23.9508 20.3856 25.3569 19.6995 26.836 19.736C30.9389 19.736 30.8236 24.5672 30.8236 25.2956V39.6374H39.0294V21.9716C39.0294 14.5055 32.1678 12.0055 28.0593 12.7535H28.0649Z" fill="#4BBEDB"/>
<path d="M8.03139 8.59441C9.86868 6.75712 9.86868 3.77828 8.03139 1.94099C6.1941 0.103704 3.21527 0.103704 1.37798 1.94099C-0.459313 3.77828 -0.459313 6.75712 1.37798 8.59441C3.21527 10.4317 6.1941 10.4317 8.03139 8.59441Z" fill="#4BBEDB"/>
</g>
<defs>
<clipPath id="clip0_499_1125">
<rect width="39.035" height="39.0744" fill="white" transform="translate(0 0.562988)"/>
</clipPath>
</defs>
</svg>
