<svg width="35" height="40" viewBox="0 0 35 40" fill="none" xmlns="http://www.w3.org/2000/svg">
<g clip-path="url(#clip0_499_1119)">
<path d="M34.3043 16.7427V9.89517C25.3519 9.51801 25.0715 1.38612 25.0588 0.621601V0.562988H18.1476V27.2293C18.1476 30.2568 15.6935 32.7083 12.666 32.7083C9.63851 32.7083 7.18697 30.2542 7.18697 27.2267C7.18697 24.1993 9.64106 21.7477 12.6685 21.7477C13.2088 21.7477 13.7465 21.8293 14.2664 21.9847V14.9231C7.46984 14.0414 1.24668 18.8349 0.362393 25.6289C-0.519348 32.4254 4.27161 38.6486 11.0682 39.5329C17.8647 40.4146 24.0879 35.6237 24.9721 28.8271C25.041 28.2971 25.0766 27.7645 25.0766 27.2293C25.0766 27.056 25.0715 26.8827 25.0639 26.712V13.5801C28.2494 16.4929 34.3043 16.7427 34.3043 16.7427Z" fill="#4BBEDB"/>
</g>
<defs>
<clipPath id="clip0_499_1119">
<rect width="34.0464" height="39.0744" fill="white" transform="translate(0.257812 0.562988)"/>
</clipPath>
</defs>
</svg>
